# xmcd
#
# Track frame offsets:
#	187
#	41390
#	58167
#	72402
#	86617
#	104342
#	125990
#	139225
#	154862
#	169750
#	186987
#	203727
#	217610
#	232312
#
# Disc length: 3344 seconds
#
# Revision: 1
# Processed by: cddbd v1.5PL3 Copyright (c) Steve Scherf et al.
# Submitted via: CDex 1.50Beta5
#
DISCID=d20d0e0e
DTITLE=RICHARD CLAYDERMAN - TITANIC SYMPHONY
DYEAR=1900
DGENRE=
TTITLE0=TITANIC SYMPHONY
TTITLE1=UN-BREAK MY HEART
TTITLE2=CON TE PARTIRO(TIME TO SAY  GOODBYE)
TTITLE3=CANDLE IN THE WIND
TTITLE4=ANGELS
TTITLE5=TELL HIM
TTITLE6=HOW DO LIVE
TTITLE7=SOMETHING ABOUT THE WAY YOU LOOK TONIGHT...
TTITLE8=MAKE IT WITH YOU
TTITLE9=SAVOIR AIMER(LEARN HOW TO LOVE)
TTITLE10=VALSE N2
TTITLE11=LUCIE
TTITLE12=BELLE(BEAUTIFUL)
TTITLE13=JE T'AIME
EXTD=
EXTT0=
EXTT1=
EXTT2=
EXTT3=
EXTT4=
EXTT5=
EXTT6=
EXTT7=
EXTT8=
EXTT9=
EXTT10=
EXTT11=
EXTT12=
EXTT13=
PLAYORDER=
